<?xml version="1.0" encoding="UTF-8" standalone="no"?>
<!-- Created with Inkscape (http://www.inkscape.org/) -->

<svg
   width="39.96246mm"
   height="34.953537mm"
   viewBox="0 0 39.962457 34.953536"
   version="1.1"
   id="svg5"
   xml:space="preserve"
   inkscape:version="1.2 (1:1.2.1+202207142221+cd75a1ee6d)"
   sodipodi:docname="logo_side.svg"
   inkscape:export-filename="flavicon.png"
   inkscape:export-xdpi="298.246"
   inkscape:export-ydpi="298.246"
   xmlns:inkscape="http://www.inkscape.org/namespaces/inkscape"
   xmlns:sodipodi="http://sodipodi.sourceforge.net/DTD/sodipodi-0.dtd"
   xmlns="http://www.w3.org/2000/svg"
   xmlns:svg="http://www.w3.org/2000/svg"><sodipodi:namedview
     id="namedview7"
     pagecolor="#ffffff"
     bordercolor="#666666"
     borderopacity="1.0"
     inkscape:showpageshadow="2"
     inkscape:pageopacity="0.0"
     inkscape:pagecheckerboard="0"
     inkscape:deskcolor="#d1d1d1"
     inkscape:document-units="mm"
     showgrid="false"
     inkscape:zoom="5.0695292"
     inkscape:cx="93.105293"
     inkscape:cy="65.390688"
     inkscape:window-width="1862"
     inkscape:window-height="1016"
     inkscape:window-x="58"
     inkscape:window-y="27"
     inkscape:window-maximized="1"
     inkscape:current-layer="layer1" /><defs
     id="defs2"><clipPath
   clipPathUnits="userSpaceOnUse"
   id="clipPath3249"><g
     id="g3255"
     style="stroke-width:0.999999"><g
       id="g3253"
       style="stroke-width:0.999999"><rect
         style="opacity:0.556898;fill:#0047b2;fill-opacity:1;stroke:#dac90f;stroke-width:0.732;stroke-linecap:round;stroke-miterlimit:6;stroke-dashoffset:12.0945;paint-order:stroke markers fill"
         id="rect3251"
         width="39.280231"
         height="38.843868"
         x="105.88403"
         y="42.09465" /></g></g></clipPath><clipPath
   clipPathUnits="userSpaceOnUse"
   id="clipPath3257"><g
     id="g3263"
     style="stroke-width:0.999999"><g
       id="g3261"
       style="stroke-width:0.999999"><rect
         style="opacity:0.556898;fill:#0047b2;fill-opacity:1;stroke:#dac90f;stroke-width:0.732;stroke-linecap:round;stroke-miterlimit:6;stroke-dashoffset:12.0945;paint-order:stroke markers fill"
         id="rect3259"
         width="39.280231"
         height="38.843868"
         x="105.88403"
         y="42.09465" /></g></g></clipPath>

<clipPath
   clipPathUnits="userSpaceOnUse"
   id="clipPath3289"><g
     id="g3297"
     style="stroke-width:0.999999"><g
       id="g3295"
       style="stroke-width:0.999999"><g
         id="g3293"
         style="stroke-width:0.999999"><rect
           style="opacity:0.556898;fill:#0047b2;fill-opacity:1;stroke:#dac90f;stroke-width:0.732;stroke-linecap:round;stroke-miterlimit:6;stroke-dashoffset:12.0945;paint-order:stroke markers fill"
           id="rect3291"
           width="39.280231"
           height="38.843868"
           x="105.88403"
           y="42.09465" /></g></g></g></clipPath>












<clipPath
   clipPathUnits="userSpaceOnUse"
   id="clipPath3325"><g
     id="g3335"
     style="stroke-width:0.999999"><g
       id="g3333"
       style="stroke-width:0.999995"><g
         id="g3331"
         style="stroke-width:0.999995"><g
           id="g3329"
           style="stroke-width:0.999995"><rect
             style="opacity:0.556898;fill:#0047b2;fill-opacity:1;stroke:#dac90f;stroke-width:0.732;stroke-linecap:round;stroke-miterlimit:6;stroke-dashoffset:12.0945;paint-order:stroke markers fill"
             id="rect3327"
             width="39.280231"
             height="38.843868"
             x="105.88403"
             y="42.09465" /></g></g></g></g></clipPath>
	

		
	<clipPath
   clipPathUnits="userSpaceOnUse"
   id="clipPath4157"><g
     id="g4171"
     style="stroke-width:0.999999"><g
       id="g4169"
       style="stroke-width:0.999999"
       transform="translate(3.4383995)"><g
         id="g4167"
         style="stroke-width:0.999999"><g
           id="g4165"
           style="stroke-width:0.999995"><g
             id="g4163"
             style="stroke-width:0.999995"><g
               id="g4161"
               style="stroke-width:0.999995"><rect
                 style="opacity:0.556898;fill:#0047b2;fill-opacity:1;stroke:#dac90f;stroke-width:0.732;stroke-linecap:round;stroke-miterlimit:6;stroke-dashoffset:12.0945;paint-order:stroke markers fill"
                 id="rect4159"
                 width="39.280231"
                 height="38.843868"
                 x="105.88403"
                 y="42.09465" /></g></g></g></g></g></g></clipPath></defs><g
     inkscape:label="Layer 1"
     inkscape:groupmode="layer"
     id="layer1"
     transform="translate(-106.989,-30.923214)"><path
       d="m 131.16821,61.516361 c 1.50057,-1.597593 2.17175,-3.172819 1.59177,-4.177427 -0.45462,-0.787387 -1.66848,-1.117968 -3.33362,-0.908239 -0.34737,0.04408 -0.70985,0.11513 -1.0793,0.201303 -0.63315,-2.100313 -1.66224,-3.470664 -2.82279,-3.470664 -1.16045,0 -2.1895,1.36997 -2.82275,3.469797 -0.73707,-0.173907 -1.43187,-0.267987 -2.05086,-0.267987 -1.17699,0 -1.99382,0.337481 -2.36241,0.975825 -0.57998,1.004608 0.0912,2.579903 1.59187,4.177531 -1.50067,1.597663 -2.17185,3.173028 -1.59187,4.177739 0.3706,0.642055 1.19253,0.976484 2.36074,0.976484 0.34307,0 0.71609,-0.02881 1.11617,-0.08721 0.30291,-0.04421 0.61705,-0.109338 0.93549,-0.184138 0.63321,2.101355 1.66258,3.472503 2.82355,3.472503 1.16055,0 2.18964,-1.370352 2.82282,-3.470699 0.36949,0.08617 0.73201,0.157297 1.07944,0.201372 0.32878,0.04168 0.63987,0.06207 0.9312,0.06207 1.18285,0 2.03744,-0.338106 2.40228,-0.970346 0.58002,-1.004886 -0.0911,-2.580285 -1.59173,-4.177914 z m -1.67617,-4.567514 c 0.3089,-0.03915 0.60023,-0.05815 0.87065,-0.05815 0.97606,0 1.67929,0.249123 1.94499,0.709363 0.41946,0.726529 -0.1332,2.080096 -1.50254,3.544805 -0.54687,-0.53705 -1.18417,-1.0715 -1.89555,-1.583167 -0.0872,-0.869261 -0.23077,-1.686125 -0.42161,-2.426421 0.34369,-0.07934 0.68107,-0.145472 1.00406,-0.186426 z m -0.52519,3.301404 c 0.55446,0.419702 1.04743,0.845542 1.47542,1.266146 -0.42795,0.420568 -0.92096,0.846478 -1.47542,1.26618 0.0263,-0.412976 0.04,-0.835694 0.04,-1.266007 0,-0.430382 -0.0137,-0.853241 -0.04,-1.266319 z m -0.62493,-1.08239 c -0.34448,-0.229183 -0.70374,-0.452368 -1.07635,-0.667438 -0.37005,-0.213613 -0.74411,-0.411795 -1.11874,-0.596869 0.62628,-0.26407 1.24202,-0.476296 1.83774,-0.640841 0.14957,0.579392 0.27132,1.217389 0.35735,1.905148 z m -2.81765,-5.484319 c 0.8393,0 1.73568,1.156738 2.31944,3.076867 -0.74952,0.207302 -1.52924,0.492941 -2.31767,0.848733 -0.78937,-0.355064 -1.57284,-0.640182 -2.32145,-0.848629 0.58383,-1.920198 1.48028,-3.076971 2.31968,-3.076971 z m -2.46027,3.578374 c 0.59313,0.165065 1.21025,0.380308 1.8366,0.643718 -0.37334,0.185144 -0.74682,0.380517 -1.11787,0.594789 -0.37261,0.215105 -0.73187,0.438324 -1.07635,0.667542 0.086,-0.68814 0.20792,-1.326449 0.35762,-1.906049 z m -1.37416,8.80483 c -1.51461,0.221207 -2.58948,-0.01009 -2.94926,-0.633628 -0.41949,-0.726597 0.1332,-2.080339 1.50262,-3.545118 0.54686,0.537017 1.18413,1.071467 1.89543,1.583202 0.0871,0.868256 0.23044,1.684253 0.42092,2.42389 -0.29771,0.06991 -0.59038,0.130873 -0.86971,0.171654 z m 0.39158,-3.284169 c -0.55446,-0.419737 -1.04737,-0.845507 -1.47536,-1.266111 0.42796,-0.420569 0.9209,-0.846409 1.47539,-1.266111 -0.0263,0.413009 -0.04,0.835867 -0.04,1.266215 0,0.430313 0.0137,0.853067 0.0399,1.266007 z m 0.0573,-3.220814 c -0.71134,0.511667 -1.34864,1.046117 -1.89547,1.583202 -1.36938,-1.464778 -1.92207,-2.81838 -1.50258,-3.544909 0.34091,-0.590662 1.22682,-0.714704 1.91007,-0.714704 0.57558,0 1.22238,0.08666 1.91035,0.247424 -0.19121,0.74099 -0.33502,1.55872 -0.42237,2.428987 z m 0.56767,4.303273 c 0.34449,0.229217 0.70375,0.452436 1.07639,0.667576 0.36963,0.21344 0.74161,0.408086 1.1135,0.592639 -0.6225,0.260706 -1.23934,0.476123 -1.83334,0.641951 -0.14921,-0.57856 -0.27069,-1.215587 -0.35655,-1.902166 z m 2.81793,5.484561 c -0.83951,0 -1.73603,-1.157051 -2.31989,-3.077664 0.75163,-0.208482 1.53247,-0.495751 2.31826,-0.849531 0.78961,0.35652 1.57051,0.642714 2.32107,0.850294 -0.58376,1.920198 -1.4801,3.076901 -2.31944,3.076901 z m 2.4603,-3.579136 c -0.59642,-0.164753 -1.21288,-0.377395 -1.83988,-0.641881 0.37514,-0.18556 0.74983,-0.381765 1.12084,-0.595968 0.37265,-0.21514 0.73194,-0.438359 1.07639,-0.667576 -0.086,0.687898 -0.20778,1.325928 -0.35735,1.905425 z m 0.42962,-2.585382 c -0.43763,0.305508 -0.90796,0.605504 -1.40978,0.895234 -0.48704,0.281235 -0.9856,0.537156 -1.48545,0.768974 -0.49138,-0.229877 -0.98504,-0.485971 -1.47514,-0.768974 -0.50182,-0.28973 -0.97215,-0.589726 -1.40978,-0.895234 -0.0458,-0.531746 -0.0704,-1.089048 -0.0704,-1.668475 0,-0.579496 0.0246,-1.136902 0.0704,-1.668682 0.4376,-0.305474 0.90793,-0.605435 1.40975,-0.895131 0.49107,-0.283592 0.98578,-0.540067 1.47816,-0.770291 0.49516,0.230605 0.99192,0.487149 1.48243,0.770291 0.50182,0.289662 0.97212,0.589588 1.40975,0.895062 0.0458,0.531849 0.0704,1.089221 0.0704,1.668786 0,0.579357 -0.0246,1.136694 -0.0704,1.66844 z m 3.89349,2.248004 c -0.33953,0.588131 -1.39234,0.831914 -2.8155,0.651244 -0.32302,-0.04095 -0.6604,-0.107119 -1.00416,-0.186496 0.19086,-0.740364 0.33443,-1.557332 0.42164,-2.426663 0.71138,-0.511736 1.34868,-1.046187 1.89551,-1.583271 1.36935,1.464778 1.922,2.818554 1.50251,3.545186 z"
       id="path2-3"
       style="fill:#374145;fill-opacity:1;stroke:#000000;stroke-width:0.189946;stroke-dasharray:none;stroke-opacity:1"
       clip-path="url(#clipPath3325)"
       transform="matrix(2.3707384,0,0,1.8705751,-170.6146,-66.671448)" /><path
       d="m 128.96268,59.669125 c -1.01876,0 -1.84759,0.828828 -1.84759,1.847445 0,1.018652 0.82883,1.84748 1.84759,1.84748 1.01865,0 1.84734,-0.828828 1.84734,-1.84748 0,-1.018617 -0.82869,-1.847445 -1.84734,-1.847445 z"
       id="path8-2"
       style="fill:#ffb84d;fill-opacity:1;stroke-width:0.04748655;stroke-dasharray:none;stroke:#5a5a5a;stroke-opacity:1"
       clip-path="url(#clipPath4157)"
       transform="matrix(2.3707384,0,0,1.8705751,-178.76616,-66.671448)" /></g></svg>
